<?xml version="1.0" standalone="no"?>
<!DOCTYPE svg PUBLIC "-//W3C//DTD SVG 20010904//EN"
 "http://www.w3.org/TR/2001/REC-SVG-20010904/DTD/svg10.dtd">
<svg version="1.0" xmlns="http://www.w3.org/2000/svg"
 width="820.000000pt" height="903.000000pt" viewBox="0 0 820.000000 903.000000"
 preserveAspectRatio="xMidYMid meet">
<metadata>
Created by potrace 1.16, written by Peter Selinger 2001-2019
</metadata>
<g transform="translate(0.000000,903.000000) scale(0.100000,-0.100000)"
fill="#000000" stroke="none">
<path d="M2910 9021 c-384 -42 -765 -338 -1026 -796 -199 -352 -283 -585 -353
-980 -71 -400 -84 -726 -38 -942 44 -210 97 -348 185 -487 l25 -40 22 45 c29
57 111 138 173 172 119 65 331 49 416 -31 70 -66 171 -240 151 -260 -3 -3 -27
14 -53 39 -98 94 -189 137 -304 146 -73 6 -81 4 -142 -26 -51 -25 -71 -41 -94
-79 -42 -69 -46 -85 -24 -113 l19 -23 54 47 c56 49 100 67 159 66 47 -1 101
-21 114 -43 9 -14 6 -21 -16 -37 -32 -24 -36 -49 -10 -72 14 -13 37 -16 103
-15 75 2 89 -1 136 -26 62 -34 120 -89 139 -131 13 -29 13 -28 14 34 0 64 0
64 20 46 12 -11 28 -34 36 -52 9 -18 36 -54 61 -80 67 -70 75 -89 58 -130 -20
-48 -46 -68 -153 -119 -167 -80 -244 -88 -385 -42 -65 21 -137 56 -149 73 -5
7 -8 7 -8 0 0 -5 -6 -3 -13 5 -7 8 -37 35 -67 60 -71 58 -80 67 -80 78 0 4
-12 19 -26 33 -36 32 -104 125 -105 141 0 7 -13 45 -30 83 l-30 70 6 -48 c11
-108 87 -249 190 -352 109 -110 236 -186 377 -225 97 -27 234 -27 311 -1 l56
20 -6 -97 c-5 -93 -1 -118 31 -193 6 -13 -10 -18 -96 -33 -345 -59 -838 -197
-993 -279 l-29 -15 48 -28 c27 -16 75 -50 106 -76 202 -165 365 -497 315 -640
-17 -50 -20 -98 -5 -98 9 0 7 -48 -5 -125 -2 -11 -4 -24 -4 -29 -1 -4 -8 -5
-17 -2 -9 3 -12 2 -9 -5 4 -5 1 -18 -6 -27 -8 -9 -2 -7 12 6 14 12 33 22 42
22 9 0 87 25 174 57 343 122 334 120 558 147 116 14 253 33 307 42 l96 17 49
-34 c26 -18 73 -50 104 -71 56 -38 57 -39 69 -106 6 -37 14 -79 16 -94 3 -15
23 -47 45 -72 31 -35 42 -57 50 -103 53 -299 125 -547 205 -704 29 -59 137
-176 221 -241 30 -22 51 -43 48 -46 -2 -3 -31 -15 -62 -28 -57 -23 -59 -24
-124 -8 -61 15 -71 15 -130 0 -35 -9 -93 -30 -129 -46 -36 -16 -83 -32 -105
-35 -56 -9 -87 -30 -117 -79 -69 -108 -83 -350 -39 -666 10 -66 19 -80 92
-131 l23 -16 -18 -79 c-35 -154 -38 -180 -32 -304 9 -204 43 -406 79 -476 8
-16 20 -47 26 -69 13 -48 90 -135 119 -135 11 0 62 -20 114 -45 106 -51 227
-85 302 -85 133 1 307 68 407 157 111 100 192 269 205 427 6 69 8 73 63 132
55 61 57 62 196 108 400 134 590 257 747 481 31 44 68 106 84 137 15 32 31 58
35 58 3 0 19 -19 34 -42 15 -24 51 -74 79 -112 28 -39 65 -97 81 -130 40 -82
77 -106 161 -106 l63 0 26 -53 c63 -133 157 -221 299 -277 32 -13 88 -43 123
-68 85 -58 125 -63 195 -27 84 43 152 99 277 226 143 146 221 233 249 279 12
19 37 50 57 69 39 38 45 79 24 152 -16 51 -11 56 124 126 88 46 131 77 211
152 56 51 110 108 122 127 11 18 45 60 76 91 30 32 63 74 73 93 10 19 35 54
56 77 22 24 47 60 56 80 10 21 32 59 51 86 19 26 41 71 49 100 8 28 17 59 19
68 3 8 -11 40 -32 70 -20 29 -56 98 -80 152 -63 144 -114 224 -191 298 -249
239 -609 275 -903 91 -51 -32 -117 -80 -146 -105 l-53 -47 -43 53 c-24 28 -66
79 -93 112 -78 94 -214 233 -267 271 -42 31 -48 40 -53 82 -31 255 -84 456
-174 666 -58 137 -69 170 -61 190 9 25 -2 77 -22 103 -6 7 -5 19 1 32 18 33
12 79 -18 139 -28 56 -127 170 -138 159 -3 -3 11 -23 31 -43 39 -40 46 -57 19
-47 -14 4 -12 0 5 -17 16 -15 22 -29 18 -44 -3 -11 -6 -26 -6 -33 0 -8 -7 -8
-27 2 -16 8 -35 15 -43 17 -41 9 -180 169 -180 208 0 15 -24 45 -69 86 -44 41
-68 70 -66 82 2 9 9 60 16 112 11 93 30 156 138 458 28 79 67 207 87 285 41
165 78 283 129 417 69 179 148 405 191 545 40 132 41 140 23 143 -11 2 -17 7
-15 11 3 4 -7 8 -20 9 -14 1 -34 7 -45 12 -11 6 -24 8 -29 5 -5 -3 -11 -1 -15
5 -3 5 -1 10 6 10 7 0 10 3 7 6 -4 3 -16 0 -28 -6 -12 -7 -20 -8 -17 -2 7 11
-36 33 -73 38 -71 8 -386 96 -500 139 -36 14 -74 25 -84 25 -11 0 -38 16 -62
35 -23 19 -45 35 -48 35 -10 0 -6 -24 9 -53 14 -28 13 -32 -20 -88 -19 -33
-56 -103 -81 -157 -46 -95 -66 -111 -45 -35 20 70 14 195 -13 268 -26 71 -32
82 -43 72 -4 -4 -1 -13 5 -19 15 -15 16 -74 2 -83 -6 -4 -16 -21 -24 -38 -23
-54 -74 -116 -108 -131 -42 -19 -133 -80 -191 -129 -36 -31 -59 -40 -122 -52
-42 -8 -97 -17 -123 -19 -26 -3 -68 -8 -93 -11 -49 -8 -90 2 -168 36 -38 18
-115 36 -176 43 -12 2 -32 14 -46 27 -14 13 -35 31 -47 39 -15 10 -22 25 -23
50 l-1 35 -14 -45 c-32 -100 -28 -217 11 -354 8 -28 13 -51 12 -53 -2 -1 -55
-16 -119 -32 -159 -41 -286 -60 -450 -68 -86 -4 -145 -11 -156 -19 -13 -9 -16
-25 -15 -65 6 -142 102 -261 233 -289 57 -12 80 -11 213 6 l48 7 54 -61 c85
-94 271 -176 334 -149 14 6 28 15 31 19 3 4 20 8 38 10 25 2 37 -4 54 -27 47
-63 156 -158 213 -188 83 -42 209 -50 305 -17 35 12 77 31 92 41 15 11 28 17
28 14 0 -3 12 2 28 13 41 29 59 25 54 -12 -9 -62 -56 -102 -187 -156 -62 -26
-138 -29 -300 -10 -71 9 -109 8 -175 -3 -105 -18 -166 -12 -181 15 -6 11 -24
24 -40 30 -16 5 -29 16 -29 24 0 8 -9 14 -20 14 -11 0 -20 4 -20 8 0 19 -55
28 -88 15 -18 -8 -76 -18 -130 -23 -53 -5 -119 -14 -147 -20 -115 -24 -179
-32 -228 -27 -168 15 -272 29 -352 46 -49 11 -116 25 -147 32 -81 17 -89 29
-98 151 -4 57 -15 120 -23 141 -15 36 -15 41 13 127 42 127 39 193 -15 270
-27 39 -108 90 -143 90 -24 0 -52 25 -52 47 0 13 3 13 15 3 12 -10 15 -10 15
4 0 9 4 15 8 14 11 -4 72 57 72 71 0 5 6 14 13 18 12 8 47 53 171 218 92 121
138 165 174 165 53 0 81 19 88 59 9 56 25 91 56 123 15 16 28 33 28 38 0 5 12
15 28 23 15 8 43 22 62 32 54 28 61 31 118 46 47 11 59 11 98 -3 50 -18 60
-13 97 57 16 27 33 43 57 51 99 34 131 39 220 37 91 -2 96 -3 118 -30 12 -15
33 -40 46 -55 13 -15 30 -42 39 -60 9 -18 19 -32 22 -31 3 1 21 15 39 31 18
16 63 49 100 73 36 24 66 47 66 51 0 16 -81 48 -120 48 -33 0 -48 -6 -71 -29
-16 -16 -29 -38 -29 -48 0 -15 -2 -16 -10 -3 -11 18 -13 90 -2 105 7 10 24 13
111 20 46 3 88 -9 141 -43 l45 -28 63 19 62 19 0 46 c0 55 11 74 119 216 162
213 192 415 92 614 -33 66 -109 144 -178 184 -91 53 -267 77 -425 59 l-97 -11
-83 86 c-190 197 -420 330 -675 389 -80 19 -271 27 -373 16z m459 -91 c99 -33
170 -78 247 -154 79 -80 116 -146 134 -245 12 -69 9 -91 -14 -91 -12 0 -14 9
-10 43 5 42 5 43 -68 113 -118 115 -350 294 -380 294 -9 0 -20 -28 -32 -87
-11 -49 -21 -91 -23 -95 -2 -4 -21 -1 -41 8 -53 23 -221 84 -231 84 -10 0 -2
-513 8 -523 16 -16 194 -58 204 -48 8 8 -28 201 -64 337 -21 80 -14 81 108 9
62 -36 117 -65 122 -65 9 0 31 120 31 169 0 19 5 31 13 31 19 0 148 -147 260
-297 12 -17 -84 -60 -238 -108 -66 -20 -145 -50 -177 -66 -125 -63 -191 -67
-271 -16 -82 53 -141 117 -179 195 -30 61 -33 75 -33 162 0 89 2 99 34 158 56
102 147 172 274 207 74 21 242 13 326 -15z m1525 -4464 c98 -30 159 -94 170
-178 3 -27 2 -48 -3 -48 -5 0 -12 -15 -15 -32 -9 -45 -45 -83 -108 -115 -123
-63 -286 -11 -337 107 -36 85 -23 148 45 214 61 60 156 80 248 52z"/>
<path d="M6463 8135 c-6 -22 -14 -56 -18 -75 -9 -45 -51 -131 -72 -147 -10 -8
-12 -13 -5 -13 25 0 11 -20 -20 -28 -24 -7 -39 -6 -55 4 -13 8 -43 17 -67 20
-61 9 -91 40 -76 80 l11 29 -21 -23 c-12 -12 -20 -28 -18 -34 3 -7 -5 -21 -16
-32 -17 -17 -34 -20 -113 -21 -51 0 -88 2 -83 3 48 16 -68 44 -189 46 -120 1
-153 -11 -174 -66 -9 -22 -21 -37 -26 -33 -7 3 -8 0 -5 -10 13 -32 -14 -44
-88 -40 -70 5 -136 35 -123 56 4 5 1 9 -4 9 -6 0 -11 -8 -12 -17 0 -11 -3 -13
-6 -5 -8 19 -31 14 -44 -10 -16 -29 -15 -186 1 -264 12 -59 41 -126 94 -216
l27 -46 -22 -20 -21 -20 64 -6 c34 -3 108 -8 163 -12 90 -6 98 -5 86 10 -10
12 -11 16 -1 16 10 0 10 3 0 15 -6 8 -9 19 -6 24 4 5 2 13 -4 16 -8 5 -7 11 1
21 10 12 9 13 -6 8 -14 -6 -16 -3 -10 16 5 17 4 20 -5 15 -8 -5 -11 -3 -8 5 2
8 -9 25 -25 40 -23 20 -29 35 -30 70 -2 34 -9 53 -31 78 -45 49 -43 64 12 90
26 12 54 22 63 22 9 0 54 -22 100 -48 46 -27 119 -61 162 -77 68 -24 85 -27
144 -21 69 7 126 33 142 64 16 33 21 85 10 124 -9 33 -17 43 -50 56 -45 17
-48 27 -18 59 l22 22 38 -30 c21 -17 53 -34 71 -40 52 -14 156 -11 194 7 l34
16 72 -48 c98 -67 138 -106 138 -136 0 -13 -4 -28 -9 -34 -4 -5 -16 -33 -27
-62 -14 -40 -15 -55 -6 -64 7 -7 12 -17 12 -22 0 -6 -9 0 -20 14 l-19 25 4
-45 c4 -38 3 -40 -4 -15 -10 35 -12 30 -15 -43 -2 -35 1 -51 8 -49 6 2 10 14
8 27 -2 12 1 20 6 16 5 -3 22 22 37 56 44 98 75 224 75 305 l0 72 -25 -24
c-33 -34 -78 -34 -93 0 -7 16 -17 23 -27 19 -8 -3 -15 -2 -15 2 0 5 -13 9 -30
10 -66 2 -71 27 -39 190 22 116 24 193 2 119z"/>
<path d="M3497 7166 c-52 -19 -73 -40 -93 -92 -54 -141 57 -383 209 -459 89
-44 191 -26 251 45 25 30 27 38 21 84 -13 93 -70 212 -160 335 -68 92 -138
119 -228 87z"/>
<path d="M1778 3685 c-3 -13 -1 -48 4 -77 11 -69 0 -191 -23 -250 -10 -25 -20
-57 -22 -70 -1 -13 -8 -33 -15 -45 -7 -12 -12 -31 -12 -42 0 -12 -4 -21 -10
-21 -6 0 -10 -30 -10 -70 0 -38 -4 -70 -9 -70 -9 0 -11 -7 -30 -105 -5 -27
-17 -67 -25 -87 -9 -21 -16 -49 -16 -62 0 -14 -10 -35 -22 -47 -13 -12 -18
-19 -11 -15 6 3 14 2 17 -3 3 -5 -1 -12 -10 -15 -10 -4 -13 -13 -9 -25 3 -10
1 -31 -5 -46 -9 -24 -12 -26 -28 -14 -14 11 -15 11 -4 -1 14 -17 16 -34 2 -25
-5 3 -7 0 -4 -9 5 -12 10 -11 30 7 86 75 245 456 269 647 9 77 24 132 34 125
5 -2 11 9 15 26 3 17 10 28 15 25 5 -3 11 22 13 56 3 46 1 66 -11 80 -8 10
-20 18 -25 18 -14 0 -35 30 -61 88 -14 28 -27 52 -29 52 -2 0 -6 -11 -8 -25z"/>
<path d="M1081 3233 c-8 -9 -15 -29 -17 -47 -2 -17 -8 -60 -13 -96 -11 -84 2
-246 22 -266 6 -6 29 39 56 108 5 15 24 34 41 43 26 13 35 14 57 3 35 -17 58
-58 50 -89 -7 -26 -55 -82 -102 -118 l-30 -23 30 3 c17 2 33 8 37 14 5 6 8 3
8 -6 0 -26 -43 -62 -121 -103 -121 -64 -207 -59 -316 17 -23 17 -45 28 -49 25
-8 -9 14 -48 26 -45 5 1 16 -7 25 -18 9 -11 14 -14 10 -7 -3 6 -1 12 4 12 6 0
11 -4 11 -10 0 -5 8 -10 19 -10 10 0 24 -7 31 -15 7 -8 25 -15 41 -15 16 0 29
-5 29 -11 0 -6 9 -9 19 -6 11 3 29 -1 40 -9 19 -14 54 -14 67 -1 4 4 20 7 34
7 65 0 92 12 126 59 34 47 68 135 77 203 3 21 -1 65 -10 98 -12 49 -13 70 -4
107 11 42 10 47 -11 67 -35 34 -68 75 -68 85 0 12 -46 41 -79 51 -18 5 -31 3
-40 -7z"/>
</g>
</svg>
