<?xml version="1.0" standalone="no"?>
<!DOCTYPE svg PUBLIC "-//W3C//DTD SVG 20010904//EN"
 "http://www.w3.org/TR/2001/REC-SVG-20010904/DTD/svg10.dtd">
<svg version="1.0" xmlns="http://www.w3.org/2000/svg"
 width="900.000000pt" height="1199.000000pt" viewBox="0 0 900.000000 1199.000000"
 preserveAspectRatio="xMidYMid meet">
<metadata>
Created by potrace 1.16, written by Peter Selinger 2001-2019
</metadata>
<g transform="translate(0.000000,1199.000000) scale(0.100000,-0.100000)"
fill="#0000ff" stroke="none">
<path fill="#ff0000" d="M5125 10794 c-319 -49 -543 -172 -763 -418 -89 -100 -227 -310 -299
-457 l-61 -124 -69 -23 c-228 -79 -320 -217 -265 -399 27 -87 78 -148 181
-215 61 -40 78 -57 97 -98 l23 -51 -19 -97 c-11 -53 -33 -140 -49 -192 -45
-145 -61 -214 -61 -263 0 -50 12 -66 36 -46 31 26 47 78 95 307 61 296 81 360
127 409 20 21 35 42 34 46 -1 5 2 6 7 3 10 -6 34 18 26 26 -3 3 1 10 9 17 12
10 12 5 4 -34 -6 -26 -7 -49 -4 -52 3 -3 21 8 41 26 72 63 159 78 239 40 42
-19 126 -99 173 -164 l22 -30 1 106 c0 106 0 107 25 111 14 3 28 1 31 -4 3 -5
22 -8 42 -7 20 1 60 -4 87 -11 28 -6 58 -13 67 -15 80 -17 217 -77 304 -133
l71 -46 -43 -60 c-24 -33 -44 -65 -44 -72 0 -8 30 -1 85 18 71 24 101 29 182
29 111 1 149 -8 127 -29 -12 -11 -14 -10 -14 4 0 10 -3 15 -6 11 -4 -3 -4 -14
0 -23 5 -14 9 -14 23 -3 12 10 15 10 9 1 -4 -7 -1 -15 8 -18 9 -3 13 -11 9
-18 -4 -6 2 -4 12 4 11 9 16 10 11 3 -4 -8 -2 -13 4 -13 6 0 8 -5 4 -12 -5 -8
0 -7 11 2 12 10 16 10 11 2 -9 -15 12 -45 25 -36 5 3 9 0 9 -6 0 -6 5 -8 12
-4 8 5 9 2 4 -12 -4 -10 -4 -16 -1 -12 8 7 65 -50 65 -65 0 -6 3 -8 6 -4 4 3
15 -4 26 -16 l19 -22 -11 23 c-7 13 -10 26 -7 28 2 3 11 -12 20 -33 15 -38 48
-73 68 -73 5 0 7 -5 3 -12 -5 -8 -2 -9 9 -5 10 4 16 2 14 -5 -1 -6 4 -13 12
-16 9 -3 11 0 6 8 -5 8 -4 11 3 6 6 -4 8 -14 5 -24 -3 -9 -3 -14 1 -10 4 3 26
-14 48 -38 32 -35 44 -42 55 -33 11 10 12 8 7 -5 -9 -25 34 -70 53 -55 11 10
11 15 1 28 -11 14 -11 14 3 4 9 -7 20 -9 25 -5 5 4 2 -2 -7 -13 -24 -31 -34
-49 -21 -41 14 8 54 -34 48 -51 -3 -7 0 -15 6 -19 6 -4 8 -3 4 4 -3 6 -2 13 3
16 9 6 9 -7 -2 -34 -3 -8 -5 -26 -4 -40 1 -17 -3 -24 -12 -22 -12 3 -12 0 -1
-12 11 -14 7 -20 -12 -17 -3 0 -5 -7 -3 -17 1 -9 -3 -20 -8 -24 -13 -8 -19
-40 -6 -32 5 3 7 9 4 14 -3 4 2 11 11 14 9 4 14 9 10 13 -3 3 0 13 8 22 8 9
15 19 16 23 0 4 7 22 15 40 7 18 11 37 8 43 -3 5 0 5 7 -2 21 -19 -47 -150
-118 -226 -33 -35 -65 -75 -72 -88 -16 -29 -30 -150 -16 -142 5 4 7 -1 3 -11
-5 -11 7 -44 30 -89 21 -40 39 -75 39 -79 1 -5 2 -18 3 -30 2 -22 3 -22 11 -3
7 16 9 14 9 -15 2 -94 49 -168 99 -155 41 10 60 32 108 125 25 47 42 75 39 63
-4 -13 -2 -23 4 -23 10 0 15 14 12 33 0 4 3 7 9 7 5 0 10 7 10 15 0 8 5 15 12
15 6 0 9 3 5 6 -3 3 2 14 11 25 9 11 16 22 14 25 -2 3 9 16 24 29 24 21 25 23
7 19 -30 -8 -35 8 -12 42 10 16 19 24 19 19 0 -6 -7 -21 -16 -33 -8 -12 -10
-22 -5 -22 6 0 11 5 11 11 0 5 4 7 10 4 6 -3 7 1 4 9 -4 10 -1 16 9 16 13 0
33 43 29 63 -1 4 3 6 9 5 6 -2 14 3 17 11 3 9 0 11 -9 6 -8 -5 -11 -4 -6 1 5
5 14 9 20 9 7 1 11 6 10 13 -2 6 6 16 17 22 11 6 18 15 15 21 -4 5 -3 8 2 7 4
-1 18 6 30 16 40 35 125 65 183 65 59 1 128 -25 169 -62 29 -27 71 -113 71
-146 0 -25 1 -24 36 10 125 118 225 347 224 512 0 72 -28 179 -67 257 -29 59
-57 96 -135 173 -54 54 -98 105 -98 114 0 32 -70 290 -109 405 -213 615 -552
1055 -991 1282 -204 105 -387 154 -600 160 -74 3 -148 2 -165 0z m150 -331
c200 -62 347 -212 384 -391 40 -193 -45 -365 -220 -447 l-52 -24 -51 21 c-200
79 -264 103 -366 132 -63 19 -153 42 -199 52 -79 18 -84 21 -102 57 -60 116
-61 237 -4 354 59 120 197 224 335 252 30 6 64 13 75 15 34 8 147 -4 200 -21z"/>
<path fill="#ff0000" d="M4945 10298 c-59 -62 -141 -157 -181 -211 l-75 -99 44 -61 c25 -34
50 -62 56 -62 6 0 37 47 69 105 32 58 80 138 106 179 l48 74 32 -99 c49 -151
36 -146 151 -58 55 41 101 70 103 64 2 -6 2 -28 -1 -48 -5 -43 11 -363 19
-371 3 -3 43 8 90 24 85 28 86 29 81 59 -16 114 -81 512 -84 516 -5 5 -106
-46 -189 -96 -32 -19 -61 -31 -66 -26 -4 4 -25 54 -46 110 -21 56 -41 105 -44
107 -3 3 -54 -45 -113 -107z"/>
<path d="M3280 9140 c-3 -23 -11 -36 -22 -38 -13 -3 -16 1 -12 15 5 14 4 15
-4 3 -13 -17 -6 -30 14 -30 16 0 14 -34 -3 -51 -8 -8 -13 -7 -18 2 -5 7 -4 10
3 5 6 -3 13 -2 17 4 3 5 0 10 -7 10 -11 0 -10 2 0 9 11 7 11 9 -1 14 -10 4
-19 -4 -28 -24 -7 -19 -15 -26 -19 -19 -4 7 -11 11 -16 10 -5 0 -17 1 -26 4
-19 4 -25 26 -7 26 5 0 7 -4 4 -10 -3 -5 -2 -10 4 -10 5 0 9 9 8 19 -1 14 -6
17 -17 12 -22 -11 -45 -8 -45 6 0 6 -2 14 -5 17 -4 3 -6 -5 -6 -18 0 -18 5
-23 18 -21 10 2 18 0 18 -4 0 -5 -31 -11 -70 -15 -77 -7 -168 -38 -254 -85
-60 -34 -71 -37 -60 -18 4 7 3 9 -2 4 -5 -5 -9 -14 -9 -20 0 -5 -6 -12 -14
-15 -9 -3 -11 0 -6 9 5 8 4 11 -1 6 -5 -5 -9 -14 -9 -20 0 -5 -6 -12 -14 -15
-9 -3 -11 0 -6 8 5 9 4 11 -4 6 -6 -4 -9 -11 -6 -16 3 -4 -16 -24 -42 -43 -27
-19 -59 -47 -72 -61 -13 -14 -29 -23 -34 -19 -6 4 -8 0 -4 -9 6 -16 -10 -38
-27 -38 -6 0 -5 4 2 9 11 7 11 9 -1 14 -12 4 -14 0 -11 -18 2 -13 -1 -27 -7
-31 -8 -5 -9 -3 -4 7 5 8 4 11 -1 6 -5 -5 -9 -16 -9 -25 0 -9 -6 -16 -13 -14
-8 1 -11 -2 -7 -8 8 -12 -19 -53 -29 -43 -4 4 -4 -1 0 -11 5 -13 4 -17 -4 -12
-8 5 -10 1 -5 -10 4 -12 3 -15 -5 -10 -8 5 -10 1 -5 -10 3 -10 2 -15 -3 -12
-17 11 -16 -92 1 -118 8 -13 12 -24 8 -24 -4 0 3 -7 15 -16 22 -15 355 -509
566 -839 167 -260 331 -536 397 -668 51 -102 59 -126 59 -174 0 -52 -3 -59
-42 -102 l-43 -46 52 -5 c29 -3 59 -12 67 -20 21 -21 7 -75 -36 -147 -42 -71
-169 -200 -216 -220 -36 -15 -37 -14 -59 13 -13 16 -26 39 -29 52 -6 22 -7 22
-30 -10 -13 -17 -24 -44 -24 -59 0 -15 -16 -51 -36 -81 -57 -85 -149 -284
-187 -403 -110 -345 -122 -633 -41 -957 33 -132 64 -215 149 -404 41 -88 80
-187 89 -220 8 -32 78 -340 155 -684 77 -344 165 -735 196 -870 30 -135 58
-266 61 -292 6 -44 5 -48 -30 -78 -36 -32 -46 -66 -25 -87 7 -7 -16 -12 -78
-16 -155 -9 -292 -69 -399 -174 -137 -135 -191 -408 -124 -628 24 -76 72 -160
101 -176 14 -7 19 -21 19 -54 0 -67 39 -99 155 -128 122 -31 239 -40 447 -34
299 8 496 45 650 123 l68 34 42 -31 43 -31 150 6 c182 7 325 29 385 59 44 22
45 23 48 77 3 47 8 60 36 90 90 94 131 282 88 406 -17 50 -17 53 1 85 25 47
16 109 -27 179 -34 56 -80 199 -175 550 -80 298 -181 712 -181 744 0 6 23 -36
51 -94 170 -352 334 -790 426 -1139 33 -123 37 -149 37 -273 1 -128 2 -138 24
-161 22 -23 22 -27 11 -94 -19 -119 23 -268 107 -379 31 -40 34 -51 34 -108 0
-78 20 -107 107 -154 74 -39 95 -63 116 -133 31 -103 112 -185 225 -228 126
-49 242 -64 482 -65 294 -1 492 28 635 94 81 37 116 76 123 136 4 38 12 53 42
80 74 67 106 195 97 384 -13 267 -138 510 -322 627 -40 25 -42 29 -38 64 8 60
-3 83 -77 157 -58 58 -79 88 -119 173 -59 124 -328 775 -602 1459 -109 272
-201 494 -204 493 -3 -1 -17 -11 -31 -22 -20 -15 -27 -32 -31 -68 -9 -96 -73
-163 -191 -204 -103 -36 -148 -35 -232 1 -41 18 -109 43 -150 56 -122 38 -204
103 -254 201 -10 20 -35 42 -68 60 -65 34 -110 98 -126 176 -6 31 -23 74 -37
96 -33 50 -55 121 -55 181 0 111 63 274 153 396 123 167 346 337 504 384 40
12 43 16 53 63 20 96 83 147 179 147 29 0 68 -7 87 -15 l36 -15 -31 -29 c-26
-24 -31 -37 -31 -73 0 -139 97 -321 263 -495 80 -84 227 -204 227 -186 0 4 7
-2 16 -13 8 -10 12 -12 8 -4 -5 10 1 8 16 -5 15 -13 21 -15 16 -5 -4 8 0 6 8
-4 16 -20 16 -20 16 0 0 15 2 16 9 4 6 -8 7 -19 3 -25 -3 -5 1 -4 10 2 8 7 19
9 23 5 5 -4 5 -1 1 6 -4 7 -2 12 5 12 7 0 9 3 6 6 -4 4 -14 1 -24 -7 -9 -8
-14 -9 -10 -2 4 6 47 35 95 64 124 74 317 210 386 270 156 140 223 295 213
494 -11 211 -97 374 -307 586 -181 182 -470 388 -726 517 -68 34 -94 55 -94
77 0 1 28 5 62 7 51 4 65 9 84 31 13 15 26 42 29 61 l7 34 45 -14 c26 -8 74
-14 108 -14 103 0 168 32 211 106 29 49 30 93 5 165 -20 58 -21 63 -21 80 0 5
-5 7 -12 3 -7 -4 -8 -3 -4 4 8 13 -15 62 -37 81 -11 8 -17 9 -22 1 -3 -6 -10
-8 -14 -6 -4 3 -13 1 -21 -5 -11 -6 -12 -9 -2 -9 7 0 10 -4 7 -10 -3 -5 -17
-10 -30 -10 -18 0 -38 -19 -83 -77 -121 -160 -251 -257 -417 -312 -112 -37
-574 -126 -587 -113 -6 6 -5 13 3 17 8 6 10 4 4 -5 -5 -8 -3 -11 6 -8 8 3 13
12 11 19 -3 11 -1 12 9 2 7 -7 17 -13 22 -13 4 0 5 6 0 13 -4 6 -8 19 -8 28 0
9 -6 23 -13 32 -9 10 -10 17 -2 22 6 4 9 3 8 -2 -2 -4 2 -8 7 -8 6 0 8 4 7 10
-2 5 0 7 4 3 4 -4 14 -2 23 4 9 7 8 3 -3 -10 -22 -25 -29 -52 -15 -52 5 0 9 6
9 13 0 8 9 22 20 32 15 14 17 21 9 32 -10 11 -15 11 -27 1 -13 -10 -14 -10 -8
0 4 6 3 12 -3 12 -5 0 -12 -5 -14 -10 -3 -6 -4 -5 -3 2 2 7 10 13 18 12 8 -1
14 9 15 25 0 14 -1 19 -4 9 -5 -20 -33 -33 -33 -15 0 7 -5 4 -11 -6 -6 -9 -15
-15 -20 -11 -6 4 -6 10 1 19 8 10 8 15 -1 21 -7 4 -9 3 -6 -3 8 -13 -17 -36
-27 -26 -4 4 -4 0 -1 -9 7 -18 -9 -19 -35 -3 -12 7 -13 6 -3 -7 17 -19 4 -32
-15 -15 -9 6 -13 7 -9 1 3 -6 0 -22 -8 -37 -7 -14 -10 -29 -7 -33 4 -4 1 -4
-6 0 -7 4 -10 11 -8 15 3 4 1 13 -5 21 -7 12 -9 10 -9 -7 0 -12 -4 -24 -9 -27
-4 -3 -6 5 -4 18 3 13 0 27 -6 30 -7 4 -9 1 -5 -8 3 -8 2 -21 -2 -28 -5 -7 -9
-16 -9 -20 0 -3 -4 -10 -8 -15 -5 -4 -7 -1 -5 7 2 9 -3 14 -11 12 -11 -2 -12
0 -3 10 6 8 7 19 2 28 -5 8 -7 17 -5 20 2 4 -2 7 -10 7 -11 0 -10 -5 2 -24 17
-26 7 -32 -12 -6 -7 9 -20 18 -30 19 -13 2 -15 0 -6 -9 20 -20 12 -31 -10 -11
-11 10 -19 14 -17 9 2 -6 -1 -10 -7 -10 -5 0 -9 4 -7 8 1 5 -2 6 -8 2 -7 -5
-8 -11 -1 -19 6 -7 6 -17 1 -26 -8 -13 -10 -12 -10 2 0 9 -4 19 -9 22 -5 4 -7
-2 -4 -12 2 -10 -3 -24 -11 -31 -18 -15 -22 -1 -5 16 8 8 8 13 0 18 -6 3 -10
3 -9 -2 1 -4 -3 -18 -10 -30 -12 -22 -25 -24 -52 -9 -12 7 -12 6 -3 -4 6 -7 9
-20 6 -29 -4 -11 -1 -10 10 4 13 15 16 16 17 5 0 -13 1 -13 10 0 9 13 10 13
10 0 1 -12 3 -11 11 3 6 9 14 15 19 12 5 -3 18 7 29 21 12 15 21 21 21 13 0
-8 6 -6 16 7 15 19 15 19 6 -1 -5 -11 -7 -27 -5 -35 4 -13 3 -13 -6 0 -10 14
-16 7 -12 -13 1 -5 -3 -6 -9 -2 -5 3 -10 0 -10 -7 0 -9 -3 -9 -10 2 -9 13 -10
13 -10 0 0 -13 -1 -13 -10 0 -9 13 -10 13 -11 0 -1 -8 -1 -19 0 -24 1 -5 -5
-4 -13 4 -13 10 -16 10 -16 -1 0 -12 -2 -12 -9 0 -6 9 -10 10 -16 2 -5 -9 -10
-9 -21 0 -7 6 -12 15 -9 18 2 4 -2 8 -10 8 -11 0 -12 -3 -3 -14 8 -10 8 -17
-2 -26 -9 -9 -11 -9 -6 0 3 6 1 15 -6 20 -19 11 -39 13 -32 2 3 -5 0 -10 -5
-10 -6 -1 -17 -2 -23 -3 -7 -1 -17 1 -23 4 -14 9 -47 6 -64 -4 -9 -6 -12 -5
-7 2 6 10 -11 16 -89 27 -38 5 -39 5 -20 -10 11 -9 -9 -2 -45 17 -87 44 -162
121 -239 248 -78 128 -143 217 -239 329 -160 188 -241 388 -242 598 0 111 13
177 51 262 25 55 29 76 29 155 0 82 -3 95 -27 131 -14 22 -108 159 -208 305
-181 264 -204 302 -183 297 16 -3 50 100 46 142 l-4 36 -4 -35z m1475 -2994
c64 -30 109 -78 129 -139 17 -51 21 -97 9 -97 -5 0 -8 -13 -9 -30 -1 -34 -50
-114 -65 -105 -5 4 -8 1 -7 -5 2 -7 -17 -23 -42 -36 -68 -35 -169 -34 -241 4
-105 55 -156 179 -115 285 48 126 211 185 341 123z m-1523 -4238 c6 2 8 -4 5
-13 -10 -25 1 -17 18 13 l15 27 -5 -28 c-3 -24 -2 -27 11 -17 13 12 19 7 15
-14 -1 -5 4 -5 11 0 12 9 30 11 43 4 3 -1 10 -4 15 -5 6 -1 12 -3 15 -4 3 0 7
-1 11 -1 3 1 13 -7 22 -17 9 -10 14 -14 10 -9 -18 23 -6 27 17 6 14 -13 25
-19 25 -14 0 5 4 3 9 -4 7 -11 9 -10 14 3 4 9 3 13 -2 10 -5 -3 -12 -1 -16 5
-4 6 -11 7 -17 4 -7 -5 -8 -2 -3 6 6 9 4 11 -5 5 -8 -5 -11 -4 -7 2 4 7 -4 10
-22 8 -23 -2 -28 1 -24 14 4 14 3 14 -7 1 -9 -12 -11 -12 -8 -1 2 8 11 15 20
17 10 1 15 -3 12 -10 -3 -7 2 -13 11 -13 8 0 15 5 15 11 0 6 5 3 10 -6 6 -9
19 -15 30 -13 11 2 19 -1 17 -8 -1 -7 8 -11 21 -11 17 1 20 -1 11 -12 -11 -14
-9 -50 3 -43 9 5 44 -42 40 -54 -1 -5 2 -6 7 -3 5 3 14 -1 21 -9 7 -8 9 -15 5
-15 -4 0 -2 -6 4 -14 9 -10 9 -16 1 -21 -8 -5 -8 -10 0 -20 7 -9 8 -15 1 -19
-6 -4 -7 -14 -4 -24 6 -15 5 -16 -13 -2 -12 9 -15 9 -7 1 18 -21 -17 -89 -39
-75 -4 3 -5 -3 -1 -12 4 -11 2 -15 -4 -11 -7 5 -10 -4 -9 -22 1 -17 -1 -28 -5
-25 -4 2 -10 -3 -13 -11 -3 -8 -11 -14 -18 -13 -7 2 -11 -4 -10 -12 2 -8 0
-12 -4 -7 -4 4 -15 0 -25 -9 -13 -12 -19 -12 -25 -3 -5 8 -3 10 6 4 9 -6 11
-4 6 4 -6 9 -12 9 -25 -3 -10 -9 -21 -13 -26 -9 -4 5 -5 2 -1 -5 6 -11 11 -11
24 0 11 8 10 5 -3 -10 -18 -22 -20 -23 -33 -5 -14 17 -14 16 -9 -5 3 -13 3
-21 0 -18 -4 3 -12 1 -19 -5 -8 -7 -14 -6 -20 2 -5 8 -3 9 6 4 8 -5 11 -4 7 3
-11 16 -33 9 -55 -18 -14 -17 -19 -19 -19 -7 0 9 4 14 9 11 4 -3 8 0 8 6 0 6
-11 8 -24 6 -14 -2 -27 -1 -29 2 -2 4 -2 0 0 -8 2 -8 1 -11 -3 -7 -4 4 -13 2
-21 -5 -8 -6 -13 -7 -11 -2 2 5 0 9 -4 9 -3 0 -17 10 -30 23 -14 12 -28 19
-32 15 -4 -4 -4 1 0 10 7 19 -30 67 -50 67 -6 0 -4 -5 4 -10 8 -5 10 -10 5
-10 -22 0 -34 22 -24 42 7 14 7 18 -3 16 -7 -2 -12 3 -10 11 3 12 1 12 -14 0
-16 -13 -16 -12 -6 7 6 12 7 26 2 34 -5 8 -7 17 -5 20 2 4 -2 7 -10 7 -11 0
-11 -4 1 -23 12 -17 12 -24 3 -30 -7 -4 -9 -3 -6 3 4 6 -3 23 -15 39 -13 15
-17 25 -10 20 8 -5 12 0 12 13 0 12 -5 21 -11 21 -5 0 -7 -5 -3 -12 4 -6 3 -8
-4 -5 -5 4 -9 15 -7 25 1 9 -1 22 -6 28 -5 7 -3 11 6 11 8 0 12 -3 10 -7 -2
-4 2 -7 9 -7 7 0 13 6 13 13 0 7 -4 11 -7 9 -4 -3 -6 14 -5 38 4 59 4 57 16
57 8 0 8 -4 0 -14 -9 -11 -9 -16 0 -22 7 -4 9 -3 5 4 -3 6 -2 13 4 17 6 4 8
10 5 15 -6 10 44 72 54 65 4 -2 8 2 8 9 0 7 -6 13 -13 13 -7 0 -10 -5 -7 -10
4 -6 1 -7 -7 -2 -9 6 -11 4 -5 -5 6 -9 4 -11 -5 -5 -9 6 -11 4 -5 -5 6 -9 4
-11 -5 -5 -9 6 -11 4 -5 -5 6 -9 4 -11 -5 -5 -9 6 -11 4 -5 -5 5 -9 4 -11 -3
-6 -7 4 -10 2 -9 -6 2 -7 2 -9 -1 -4 -2 4 -8 3 -12 -4 -5 -8 -9 -7 -13 4 -4 9
-1 15 6 13 7 -1 11 5 9 13 -2 8 0 12 4 7 4 -4 16 0 26 9 15 14 16 20 5 32 -10
13 -9 14 3 7 24 -15 42 -15 36 0 -3 8 0 17 6 21 6 4 9 3 5 -2 -3 -5 1 -20 9
-34 7 -14 13 -19 14 -12 0 7 5 10 10 7 6 -3 13 0 16 8 3 8 17 13 32 12 38 -3
44 3 31 28 -10 22 -10 22 6 2 9 -11 21 -19 27 -17z m3047 -245 c13 10 14 10 5
-3 -15 -20 -25 -62 -13 -54 5 3 9 11 9 18 0 7 10 21 23 32 12 10 17 12 10 5
-6 -7 -9 -21 -6 -30 4 -14 3 -14 -6 -1 -9 12 -11 11 -8 -7 2 -12 7 -26 11 -30
4 -5 7 -3 5 2 -3 11 18 65 25 65 3 0 1 -14 -4 -30 -5 -19 -5 -28 1 -25 5 4 9
13 9 21 0 8 5 14 11 14 5 0 8 4 5 8 -3 5 1 9 9 9 8 0 12 -4 9 -8 -2 -4 0 -10
6 -14 5 -3 10 0 10 7 0 9 3 9 10 -2 5 -8 10 -19 10 -25 0 -5 -5 -3 -10 5 -9
13 -10 13 -10 0 0 -13 -1 -13 -10 0 -9 13 -10 13 -10 0 0 -13 -2 -13 -11 0 -9
13 -10 13 -6 -1 3 -9 0 -23 -6 -30 -8 -9 -6 -8 7 1 25 20 69 22 62 3 -3 -8 -1
-11 4 -8 11 7 9 33 -5 55 -7 12 -6 13 7 3 8 -7 19 -9 24 -5 4 4 2 -2 -6 -12
-14 -18 -13 -19 2 -13 10 3 20 2 23 -3 4 -6 11 -10 17 -10 6 0 3 10 -8 23 -19
22 -19 22 2 4 11 -9 23 -16 25 -15 2 2 1 -1 -3 -6 -3 -5 -4 -16 -1 -25 4 -14
3 -14 -6 -1 -9 13 -11 13 -12 0 0 -12 -2 -11 -7 2 -6 15 -9 13 -19 -8 -10 -21
-9 -23 1 -15 17 14 35 -6 30 -32 -1 -11 1 -16 4 -12 4 4 8 11 8 16 3 22 5 23
14 9 5 -9 5 -19 -1 -26 -6 -8 -3 -16 8 -25 16 -13 17 -12 5 3 -8 9 -9 19 -4
22 11 6 27 -22 23 -39 -2 -5 1 -7 5 -2 4 4 16 -5 26 -20 19 -30 24 -48 9 -39
-5 4 -8 -2 -6 -11 1 -10 -3 -25 -9 -33 -10 -13 -9 -13 6 -1 10 7 16 17 13 21
-3 5 -1 11 5 15 11 7 14 -28 3 -39 -5 -4 -8 -22 -8 -39 -1 -22 -5 -31 -15 -29
-11 3 -10 -1 3 -16 25 -27 21 -39 -5 -16 -14 12 -18 13 -10 3 6 -9 9 -18 6
-22 -3 -3 2 -4 11 -3 23 3 37 30 31 61 -3 14 -1 23 4 20 11 -7 3 72 -11 96 -5
11 -7 25 -3 31 4 7 3 8 -4 4 -8 -5 -10 -1 -6 11 5 15 4 16 -5 3 -11 -13 -12
-13 -9 0 4 24 -34 82 -45 67 -6 -8 -7 -7 -3 5 3 10 0 20 -6 24 -7 5 -8 2 -3
-6 5 -8 4 -11 -3 -7 -5 4 -8 17 -4 29 5 21 6 21 13 2 7 -18 10 -17 13 5 3 25
13 18 11 -8 -1 -16 1 -35 6 -43 7 -10 9 -8 10 7 1 11 1 24 0 28 -1 5 2 6 7 3
5 -3 7 -21 6 -41 -3 -32 -1 -35 12 -24 8 7 14 8 12 3 -2 -5 2 -9 7 -9 6 0 9 4
7 8 -1 5 2 5 8 2 8 -5 6 -13 -4 -24 -24 -26 -19 -37 7 -15 12 10 17 12 10 5
-15 -17 2 -55 19 -45 7 5 8 2 2 -7 -5 -8 -9 -26 -10 -41 -1 -16 -3 -30 -4 -33
-1 -3 -3 -13 -5 -22 -1 -10 -5 -26 -9 -36 -5 -10 -3 -24 5 -35 13 -15 12 -16
-3 -3 -20 15 -25 2 -6 -17 9 -9 6 -11 -11 -7 -15 3 -21 0 -18 -8 3 -7 11 -11
18 -9 8 2 3 -8 -10 -22 -14 -14 -21 -26 -17 -26 5 0 3 -6 -3 -13 -6 -8 -8 -16
-5 -19 3 -3 0 -9 -6 -13 -6 -3 -10 -3 -9 2 3 19 -2 27 -10 14 -7 -10 -9 -7 -8
12 1 15 8 29 16 32 7 3 10 12 7 20 -3 8 -1 15 4 15 6 0 10 -7 10 -16 0 -8 5
-12 10 -9 16 10 -7 34 -30 32 -11 -1 -17 -3 -15 -6 3 -2 -2 -12 -11 -22 -10
-11 -12 -19 -5 -24 6 -3 11 -11 11 -17 0 -6 -6 -5 -16 2 -12 11 -15 11 -12 -1
2 -8 -3 -13 -10 -11 -6 1 -11 -4 -10 -10 2 -7 -3 -12 -11 -10 -12 3 -12 1 0
-14 12 -16 12 -17 -2 -12 -13 5 -16 2 -11 -14 3 -13 7 -16 12 -8 5 8 9 7 13
-5 4 -9 3 -14 -2 -11 -5 3 -12 -1 -15 -10 -3 -8 -10 -13 -15 -10 -5 4 -11 -2
-13 -11 -3 -15 -5 -14 -10 5 -4 14 -2 20 4 15 7 -4 8 -1 3 7 -4 7 -2 15 5 20
8 5 6 9 -8 12 -16 4 -19 1 -15 -16 4 -17 3 -18 -6 -6 -8 11 -11 12 -11 2 0 -7
-5 -10 -12 -6 -7 4 -8 3 -4 -4 6 -11 -5 -16 -25 -14 -4 1 -4 -8 -1 -20 5 -21
6 -21 13 -2 7 19 8 19 9 -1 2 -17 3 -16 10 5 l8 25 2 -25 2 -25 8 25 c7 22 8
23 9 4 1 -12 -6 -27 -14 -34 -8 -7 -15 -9 -15 -4 0 5 -5 2 -10 -6 -9 -13 -10
-13 -10 0 0 13 -1 13 -10 0 -9 -13 -10 -13 -10 0 0 8 -10 0 -22 -19 -19 -30
-23 -32 -34 -17 -7 11 -14 13 -17 6 -3 -6 -4 -5 -3 2 2 7 8 13 15 13 6 0 16 7
21 15 8 13 10 13 10 0 0 -9 6 -7 16 8 20 29 10 41 -14 19 -10 -10 -22 -14 -26
-10 -4 4 -4 -1 0 -12 7 -17 6 -18 -8 -7 -12 10 -18 9 -28 -3 -7 -8 -16 -12
-21 -9 -5 3 -6 -2 -2 -11 5 -13 7 -14 14 -3 5 8 9 9 9 2 0 -6 -8 -18 -17 -25
-10 -7 -15 -9 -11 -5 10 11 -11 38 -23 30 -5 -3 -9 -11 -9 -17 0 -7 4 -6 10 3
7 12 9 10 7 -7 -1 -16 -4 -19 -13 -12 -9 7 -16 5 -23 -8 -7 -12 -10 -13 -11
-4 0 11 -3 11 -17 0 -9 -8 -14 -9 -11 -4 3 6 0 16 -8 23 -8 7 -14 9 -14 4 0
-5 -25 -8 -55 -7 -35 2 -55 -2 -56 -9 0 -6 -4 -2 -9 9 l-9 20 -2 -20 c-1 -11
-2 -28 -2 -38 0 -10 -2 -15 -6 -12 -3 4 -6 19 -6 33 0 15 -4 28 -10 30 -5 2
-17 10 -26 18 -9 8 -18 12 -21 9 -2 -3 -15 6 -28 20 -27 29 -36 31 -44 9 -3
-8 -2 -13 3 -10 5 3 14 -1 21 -9 7 -8 17 -12 23 -8 6 3 7 1 3 -5 -4 -7 1 -10
14 -7 13 3 18 0 14 -7 -5 -7 -2 -8 6 -3 9 6 11 4 5 -5 -6 -9 -4 -11 5 -5 9 5
11 4 6 -4 -4 -6 -11 -9 -16 -6 -4 3 -11 -1 -14 -7 -3 -7 -4 -4 -3 7 1 11 -2
20 -8 20 -5 0 -14 3 -20 6 -5 4 -18 5 -28 4 -9 -2 -15 1 -12 5 5 8 -13 25 -27
25 -3 0 -10 3 -14 7 -3 4 4 5 16 3 12 -2 20 -2 16 2 -3 3 -1 12 4 18 7 9 5 17
-7 26 -11 9 -14 10 -9 2 4 -8 2 -13 -6 -13 -9 0 -9 -3 2 -10 12 -7 10 -9 -7
-7 -17 1 -20 5 -12 19 7 14 6 18 -6 18 -9 0 -14 -4 -10 -9 3 -5 1 -13 -5 -16
-6 -4 -10 -3 -9 2 1 4 -1 16 -6 26 -6 14 -10 15 -24 5 -13 -10 -14 -10 -3 2
14 16 17 64 2 55 -5 -3 -7 -12 -4 -19 3 -8 1 -16 -3 -19 -5 -3 -9 4 -9 16 -1
35 -25 88 -37 80 -5 -3 -7 -1 -3 5 3 6 2 13 -3 17 -5 3 -8 14 -6 25 2 11 0 22
-5 25 -5 3 -6 13 -3 22 5 12 3 14 -7 8 -9 -5 -11 -4 -6 4 4 6 2 19 -5 27 -7 8
-8 14 -3 13 21 -4 24 2 13 22 -8 17 -8 20 1 14 8 -5 11 -3 8 6 -3 8 -11 13
-17 11 -7 -1 -10 2 -6 8 3 6 11 8 16 5 13 -9 11 9 -3 24 -8 8 -8 11 -2 8 15
-9 32 13 29 36 -2 9 1 15 6 11 5 -3 7 -9 4 -14 -3 -5 -1 -11 5 -15 14 -9 12
28 -2 44 -11 11 -10 12 2 5 24 -14 34 -11 42 11 4 12 6 3 3 -20 l-3 -40 34 37
c19 21 34 35 34 31 0 -3 8 1 18 10 15 13 21 14 32 4 12 -10 12 -9 2 4 -6 9 -8
20 -4 25 4 4 0 3 -9 -4 -9 -6 -20 -8 -24 -4 -5 4 -5 0 0 -8 5 -8 5 -12 0 -8
-4 4 -14 3 -21 -3 -16 -13 -26 2 -13 21 6 11 9 12 9 2 0 -7 5 -10 10 -7 8 5 7
12 -2 23 -11 13 -11 14 2 7 22 -14 33 -13 53 3 9 8 17 11 17 7 0 -5 6 -1 13 9
12 16 13 16 13 -3 0 -11 -4 -18 -7 -15 -4 2 -10 0 -14 -6 -4 -6 -11 -8 -16 -5
-5 3 -6 -1 -2 -10 5 -13 7 -14 14 -3 5 7 9 9 9 4 0 -5 8 -2 18 7 10 10 22 14
27 10 4 -5 5 -2 1 5 -4 7 -12 9 -18 6 -6 -4 -6 0 1 13 6 11 8 22 6 25 -3 3 2
5 9 5 8 0 14 -5 13 -11 -1 -6 5 -9 13 -7 8 2 21 4 28 5 8 1 18 9 23 17 7 12 9
12 10 -1 1 -8 1 -20 0 -27 -1 -6 2 -14 7 -17 5 -3 8 8 7 24 -1 17 0 28 3 25 3
-3 10 -1 16 5 8 6 12 2 13 -13 2 -15 0 -18 -6 -9 -7 11 -9 11 -14 -2 -7 -18 8
-31 18 -16 5 7 11 8 19 1 8 -7 12 -4 13 12 2 17 0 18 -7 7 -7 -11 -9 -10 -7 7
1 17 4 19 14 11 12 -10 17 -4 14 15 -1 5 3 6 9 2 6 -3 7 -11 4 -17 -4 -6 1 -8
15 -3 13 4 21 2 21 -5 0 -6 -4 -9 -9 -5 -5 3 -12 1 -15 -4 -4 -5 -2 -12 3 -15
5 -4 13 -2 16 4 5 8 12 7 23 -2 9 -7 13 -8 9 -2 -3 6 1 21 9 33 13 17 19 20
30 10 8 -6 14 -17 14 -23 0 -6 -5 -4 -10 4 -8 12 -9 10 -7 -7 2 -12 7 -26 11
-30 4 -5 7 -3 5 2 -1 6 1 18 6 28 4 10 2 24 -6 35 -11 14 -11 15 1 5 11 -10
17 -10 29 0z m-3059 -662 c95 -10 298 -24 334 -23 17 1 17 0 1 -12 -10 -7 -15
-18 -11 -24 3 -6 -1 -9 -11 -8 -10 2 -22 -2 -26 -8 -6 -7 -7 -5 -4 5 3 9 -1
16 -8 16 -7 0 -11 -6 -9 -12 3 -7 -3 -18 -13 -26 -16 -13 -17 -12 -4 4 13 16
2 25 -13 10 -11 -11 -30 -10 -38 2 -5 6 -8 1 -9 -10 l0 -20 -9 20 c-5 11 -9
14 -9 6 -1 -10 -4 -11 -15 -2 -11 9 -16 9 -21 0 -6 -8 -10 -7 -16 2 -7 12 -9
12 -9 0 0 -10 -3 -11 -14 -2 -10 8 -16 9 -21 1 -3 -5 -11 -10 -16 -10 -6 0 -7
5 -3 12 5 7 3 8 -7 2 -24 -14 -51 -16 -43 -2 6 10 4 10 -8 0 -11 -9 -18 -10
-23 -2 -3 6 -10 8 -15 5 -4 -3 -11 2 -14 11 -5 14 -9 14 -23 3 -15 -12 -16
-12 -10 5 6 16 5 17 -8 6 -12 -10 -15 -9 -16 6 0 18 -1 18 -9 -1 -5 -11 -9
-14 -9 -7 -1 7 -6 10 -13 6 -8 -5 -9 -2 -4 12 4 10 4 15 0 11 -4 -4 -13 -2
-20 4 -8 7 -14 6 -20 -2 -4 -7 -3 -9 4 -5 6 3 13 2 16 -3 4 -5 2 -12 -3 -15
-13 -9 -34 21 -25 36 6 10 5 10 -7 2 -11 -9 -19 -6 -39 14 -14 13 -19 22 -12
18 18 -11 14 5 -5 20 -11 7 18 3 72 -11 50 -13 133 -28 185 -34z m2524 -446
c55 -24 242 -75 276 -75 10 0 28 -9 42 -19 18 -14 28 -17 39 -9 11 8 11 9 -3
4 -10 -3 -20 -1 -23 4 -4 6 3 10 14 10 11 0 25 -8 30 -18 7 -14 18 -17 47 -14
26 3 35 1 30 -7 -4 -6 -12 -9 -17 -6 -5 3 -6 -1 -3 -10 6 -14 8 -14 19 2 19
25 8 36 -31 31 -19 -2 -34 0 -34 4 0 11 89 7 96 -4 3 -5 10 -6 15 -3 5 4 12
-1 15 -10 6 -14 8 -14 19 2 8 10 17 15 21 10 4 -4 2 -7 -4 -7 -20 0 -13 -16 7
-17 11 -1 19 4 17 10 -1 7 -1 9 1 4 3 -4 8 -5 13 -2 7 4 7 -10 1 -33 -1 -1
-10 2 -21 8 -15 8 -20 8 -20 -2 0 -9 -3 -9 -10 2 -9 13 -10 13 -10 0 -1 -9 -6
-5 -16 10 -13 22 -14 22 -9 3 3 -12 1 -25 -6 -29 -8 -4 -9 -3 -5 4 8 13 -20
12 -41 -1 -6 -4 -14 -3 -17 2 -3 5 -38 8 -76 7 -39 -2 -73 1 -76 6 -3 5 -12 4
-19 -2 -10 -8 -16 -7 -24 7 -6 10 -11 13 -11 7 0 -15 -40 -10 -51 7 -7 11 -9
11 -9 0 0 -11 -3 -11 -17 0 -14 12 -16 12 -9 -1 4 -8 1 -7 -7 3 -11 14 -16 15
-20 5 -3 -8 -6 -5 -6 7 -1 17 -3 17 -11 5 -7 -11 -10 -11 -10 -2 0 7 -4 11 -9
7 -6 -3 -14 3 -20 12 -8 13 -10 14 -11 4 0 -11 -4 -10 -13 4 -8 10 -19 15 -25
11 -8 -4 -10 -2 -6 7 3 8 0 18 -7 23 -8 5 -10 3 -4 -6 5 -9 4 -11 -4 -6 -6 4
-10 13 -9 20 2 6 -1 12 -7 13 -5 1 -9 -6 -7 -15 2 -15 1 -15 -8 1 -6 9 -9 21
-5 26 3 5 0 13 -6 17 -7 4 -9 3 -5 -4 3 -6 1 -14 -6 -18 -7 -4 -10 -4 -6 1 4
4 -3 16 -15 26 -12 10 -18 18 -13 19 6 0 -6 17 -25 37 l-34 37 52 -42 c28 -23
76 -53 107 -67z"/>
<path  fill="#550000" d="M4444 8748 c-35 -31 -66 -86 -84 -149 l-9 -29 52 0 c29 0 79 -7 112
-15 83 -20 83 -20 94 23 43 153 -62 260 -165 170z"/>
<path fill="#220000" d="M5353 8609 c-83 -41 -140 -126 -174 -256 -37 -147 -19 -290 46 -359
l34 -36 84 3 c73 4 88 8 120 32 48 36 81 94 123 217 58 167 48 297 -28 366
-62 57 -134 68 -205 33z m138 -21 c5 -7 9 -9 9 -4 0 5 11 -1 24 -13 23 -21 24
-25 10 -45 -12 -20 -12 -25 2 -42 15 -18 15 -18 5 2 -8 17 -7 25 7 35 9 7 14
9 10 5 -4 -5 -2 -16 5 -24 9 -13 9 -14 0 -8 -13 7 -13 -6 2 -84 l6 -35 -15 38
c-8 22 -24 49 -35 61 -12 12 -19 24 -17 27 2 2 -17 5 -43 7 -39 2 -54 -2 -89
-27 -65 -48 -112 -159 -112 -267 0 -35 -5 -54 -14 -57 -8 -3 -17 -3 -20 1 -11
10 -37 11 -30 1 3 -5 11 -6 17 -3 7 4 8 3 4 -1 -33 -37 -52 11 -42 102 24 217
131 360 259 349 27 -3 53 -11 57 -18z"/>
<path fill="#220000" d="M3770 8383 c-58 -65 -94 -157 -98 -247 -5 -87 6 -136 41 -188 15 -21
26 -56 30 -94 9 -82 23 -125 55 -172 45 -66 78 -87 145 -89 l59 -1 27 -59 c16
-33 44 -72 64 -88 32 -26 41 -44 73 -150 45 -153 73 -204 154 -287 75 -75 129
-98 235 -98 164 0 288 71 392 223 54 80 66 127 32 127 -13 0 -18 4 -13 13 5 7
0 6 -11 -3 -17 -14 -18 -13 -12 5 6 17 5 18 -5 4 -13 -15 -47 -17 -123 -5 -92
15 -115 16 -115 7 0 -6 7 -7 17 -4 9 4 14 2 11 -3 -3 -5 13 -9 35 -10 36 -1
144 -11 197 -19 8 -1 15 -6 15 -11 0 -5 4 -15 8 -22 13 -20 -18 -25 -116 -19
-286 18 -666 122 -675 185 -3 21 -1 22 35 17 21 -3 58 1 83 8 l45 14 57 -44
c121 -93 222 -111 332 -60 63 29 70 31 62 19 -2 -4 3 -8 12 -8 9 -1 31 -4 49
-8 20 -4 34 -2 39 6 4 7 3 8 -4 4 -7 -4 -12 -1 -12 9 0 13 6 11 33 -9 43 -33
109 -56 161 -56 44 0 132 36 155 63 16 21 28 22 28 3 0 -7 -7 -13 -16 -12 -9
0 -15 -5 -13 -12 1 -8 -2 -11 -8 -7 -6 4 -7 -1 -3 -11 5 -14 7 -14 18 5 6 12
13 19 16 17 3 -3 23 13 45 36 21 23 33 39 27 34 -7 -4 -13 -5 -13 -1 0 3 11
10 25 15 26 10 34 45 13 53 -7 3 12 6 43 6 169 3 276 102 287 268 3 44 -1 91
-8 119 -15 52 -9 51 -125 10 -67 -24 -231 -49 -271 -41 -10 2 -36 4 -56 4 -34
1 -38 4 -38 27 0 14 -3 23 -7 21 -5 -3 -9 6 -9 19 -1 13 -9 31 -18 39 -9 9
-20 25 -26 35 -5 9 -19 20 -30 23 -11 3 -18 1 -14 -4 3 -5 1 -9 -5 -9 -5 0
-12 6 -15 13 -4 8 -5 7 -5 -3 1 -8 0 -26 -1 -40 l-2 -25 -8 25 c-7 21 -10 19
-10 -5 0 -3 -16 -37 -35 -76 -62 -121 -161 -208 -295 -257 -92 -33 -150 -43
-266 -43 -166 0 -317 61 -436 176 -133 129 -197 327 -156 485 14 51 13 57 -3
85 -10 16 -21 49 -25 72 -3 24 -10 43 -14 43 -4 0 -23 -17 -40 -37z"/>
<path fill="#220000" d="M6599 7813 c-12 -15 -12 -16 1 -8 8 4 12 4 7 0 -10 -12 -38 -15 -31
-4 9 15 -5 10 -41 -14 -87 -59 -179 -214 -182 -306 -2 -73 3 -83 38 -77 16 2
31 0 35 -5 3 -5 10 -7 15 -4 5 3 6 -1 3 -9 -4 -11 0 -14 15 -11 13 2 19 0 15
-6 -3 -6 -9 -8 -12 -5 -3 3 -11 1 -19 -5 -10 -9 -13 -7 -13 11 0 20 -2 21 -17
9 -9 -8 -14 -9 -11 -4 3 6 -6 11 -20 12 l-27 1 25 -13 c14 -7 29 -11 34 -7 5
3 7 -2 3 -10 -6 -16 8 -19 29 -5 7 4 17 0 24 -8 13 -16 30 -11 30 8 0 8 -3 8
-9 -2 -5 -8 -11 -9 -15 -3 -3 5 1 13 10 16 8 3 13 10 10 15 -4 5 1 8 11 7 21
-3 28 -52 12 -74 -12 -16 -11 -16 5 -1 9 9 18 25 19 37 0 11 4 20 8 19 4 -1 7
3 8 8 1 6 -2 10 -6 10 -15 0 -33 16 -33 28 0 8 3 8 9 -2 6 -9 11 -10 15 -2 4
6 12 9 17 5 5 -3 7 -9 4 -14 -3 -5 -1 -11 4 -14 4 -3 7 -20 5 -38 -3 -30 -2
-31 8 -13 7 11 13 22 14 25 0 3 4 14 8 25 51 133 55 148 60 212 3 28 7 70 11
95 6 40 4 47 -29 82 -19 22 -33 43 -30 48 9 15 -3 8 -17 -9z"/>
</g>
</svg>
